<?xml version="1.0" encoding="UTF-8" standalone="no"?>
<!-- Created with Inkscape (http://www.inkscape.org/) -->

<svg
   width="64"
   height="64"
   viewBox="0 0 16.933333 16.933333"
   version="1.1"
   id="svg1"
   inkscape:version="1.3 (0e150ed6c4, 2023-07-21)"
   sodipodi:docname="pardus-gnome-greeter.svg"
   xml:space="preserve"
   xmlns:inkscape="http://www.inkscape.org/namespaces/inkscape"
   xmlns:sodipodi="http://sodipodi.sourceforge.net/DTD/sodipodi-0.dtd"
   xmlns="http://www.w3.org/2000/svg"
   xmlns:svg="http://www.w3.org/2000/svg"><sodipodi:namedview
     id="namedview1"
     pagecolor="#ffffff"
     bordercolor="#000000"
     borderopacity="0.25"
     inkscape:showpageshadow="2"
     inkscape:pageopacity="0.0"
     inkscape:pagecheckerboard="0"
     inkscape:deskcolor="#d1d1d1"
     inkscape:document-units="px"
     inkscape:zoom="0.824039"
     inkscape:cx="-131.66853"
     inkscape:cy="84.340668"
     inkscape:window-width="1920"
     inkscape:window-height="1137"
     inkscape:window-x="0"
     inkscape:window-y="0"
     inkscape:window-maximized="1"
     inkscape:current-layer="layer1" /><defs
     id="defs1"><linearGradient
       id="SVGID_00000129901450951144020920000007753056098303935627_"
       gradientUnits="userSpaceOnUse"
       x1="-434.02811"
       y1="-74.135002"
       x2="-434.02811"
       y2="-49.8008"
       gradientTransform="matrix(1,0,0,-1,147.11891,-149.06997)"><stop
         offset="0"
         style="stop-color:#27AFD9"
         id="stop80" /><stop
         offset="1"
         style="stop-color:#42BDD9"
         id="stop81" /></linearGradient></defs><g
     inkscape:label="Layer 1"
     inkscape:groupmode="layer"
     id="layer1"><path
       class="st10"
       d="m 3.0813688,16.455457 h -0.07133 C 1.7617908,16.384127 0.7631912,15.38553 0.6561992,14.101617 V 14.030287 2.831718 2.760388 C 0.7275292,1.547804 1.7261268,0.584869 2.9387098,0.477877 h 0.07133 11.0202472 c 1.248248,0.07133 2.246847,1.105591 2.246847,2.353839 v 11.162905 c 0,1.283912 -0.998599,2.353839 -2.318175,2.425167 h -0.03566 z"
       id="path2"
       style="fill:#d6e7f1;fill-opacity:1;stroke-width:0.356642" /><path
       class="st10"
       d="m 3.4411188,14.411473 h -0.06656 c -1.164862,-0.05509 -2.096753,-0.826445 -2.196598,-1.818181 v -0.0551 -8.6501346 -0.0551 c 0.06656,-0.936639 0.998454,-1.680441 2.130034,-1.763085 h 0.06657 10.2840702 c 1.164862,0.0551 2.096752,0.853994 2.096752,1.818181 v 8.6225856 c 0,0.991735 -0.93189,1.818181 -2.163315,1.873277 h -0.03328 z"
       id="path19"
       style="fill:#ebf3f8;fill-opacity:1;stroke-width:0.356642" /><path
       class="st10"
       d="m 3.4411188,11.86814 h -0.06656 C 2.2096968,11.81968 1.2778058,11.141136 1.1779608,10.26873 V 10.220267 2.6109575 2.562482 c 0.06656,-0.8239384 0.998454,-1.4782425 2.130034,-1.550942 h 0.06657 10.2840702 c 1.164862,0.048476 2.096752,0.7512376 2.096752,1.5994087 v 7.5850743 c 0,0.872404 -0.93189,1.599409 -2.163315,1.647876 h -0.03328 z"
       id="path20"
       style="fill:#ffffff;fill-opacity:1;stroke-width:0.356642" /><path
       class="st2"
       d="m 3.0813698,16.455455 h -0.07133 C 1.7617938,16.384127 0.7631949,15.385528 0.6562022,14.101616 V 14.030286 2.831717 2.760387 C 0.7275306,1.547806 1.7261288,0.584872 2.9387128,0.477879 h 0.07132 11.0202482 c 1.248248,0.07133 2.24685,1.105592 2.24685,2.35384 v 11.162904 c 0,1.283913 -0.998602,2.35384 -2.318175,2.425168 h -0.03566 z m 0,-0.748949 H 13.923297 c 0.891605,-0.07133 1.60489,-0.784613 1.60489,-1.676218 V 2.867383 c 0,-0.855942 -0.67762,-1.533562 -1.533562,-1.60489 H 13.958965 3.0100458 c -0.820278,0.07133 -1.497898,0.713284 -1.569227,1.569226 v 0.03566 11.234233 c 0.07133,0.855942 0.748949,1.533562 1.640555,1.60489 z"
       id="path11"
       style="fill:#2f3536;stroke-width:0.356642" /><path
       id="path17"
       style="fill:#2f3536;stroke-width:0.356642"
       class="st2"
       d="M 16.256972,10.980459 H 15.50818 v 1.050582 c 0,0.891605 -0.713463,1.604538 -1.605069,1.675867 H 3.0613952 c -0.891606,-0.07133 -1.569398,-0.748613 -1.640726,-1.604554 V 10.980459 H 0.63622023 v 1.050582 0.07131 c 0.1069927,1.283911 1.10561597,2.282533 2.35386097,2.353862 h 0.07131 l 10.8417158,-0.03566 h 0.03566 c 1.319573,-0.07133 2.318204,-1.141264 2.318204,-2.425175 z" /><path
       id="path18"
       style="fill:#2f3536;stroke-width:0.356642"
       class="st2"
       d="m 16.277043,9.0360665 h -0.748792 v 1.0505815 c 0,0.891606 -0.713463,1.604539 -1.605068,1.675868 H 3.0814658 c -0.891605,-0.07133 -1.569397,-0.748613 -1.640725,-1.604554 V 9.0360665 H 0.6562913 v 1.0505815 0.07131 c 0.1069927,1.283912 1.1056165,2.282535 2.3538605,2.353863 h 0.07131 l 10.8417172,-0.03566 h 0.03566 c 1.319573,-0.07133 2.318203,-1.141265 2.318203,-2.425177 z" /><g
       id="g92"
       transform="matrix(0.45205902,0,0,0.45205902,27.266722,32.175633)"
       style="stroke:#000000;stroke-width:0;stroke-linejoin:round;stroke-dasharray:none;stroke-opacity:1"
       inkscape:transform-center-x="-1.9264865"
       inkscape:transform-center-y="-0.16054054"><g
         id="g90"
         style="stroke:#000000;stroke-width:0;stroke-linejoin:round;stroke-dasharray:none;stroke-opacity:1"><path
           class="st2"
           d="M -36.747084,-47.533622 C -37.816544,-47.583925 -41.1,-51.6 -41.1,-51.6 c 0,0 -4.021201,4.106648 -4.316766,3.87297 -0.623383,-0.492853 -2.67153,-11.52406 -4.083234,-17.57297 -0.408639,-1.750948 17.023158,3.442306 17.3,5.6 0.151792,1.183061 -4.3,4.3 -4.3,4.3 0,0 3.417031,3.656466 3.439021,4.36861 0.02042,0.661317 -2.755565,3.541537 -3.686105,3.497768 z M -41.1,-52.7 l 4.4,4.6 3,-3 -3.8,-4.4 3.9,-3.9 -14.8,-4.8 3.4,15.6 z"
           id="path90"
           style="fill:#2f3536;stroke:#000000;stroke-width:0;stroke-linejoin:round;stroke-dasharray:none;stroke-opacity:1"
           sodipodi:nodetypes="scssscsscccccccc" /></g><g
         id="g91"
         style="stroke:#000000;stroke-width:0;stroke-linejoin:round;stroke-dasharray:none;stroke-opacity:1"><polygon
           class="st21"
           points="-37.9,-55.5 -34.1,-59.2 -48.1,-63.8 -44.9,-49.2 -41.1,-53.1 -36.7,-48.5 -34.1,-51 "
           id="polygon90"
           style="fill:#27afd9;stroke:#000000;stroke-width:0;stroke-linejoin:round;stroke-dasharray:none;stroke-opacity:1" /><path
           class="st22"
           d="m -36.7,-48 -4.4,-4.6 -4,4.1 -3.5,-15.8 15.1,4.9 -3.9,3.9 3.8,4.5 z m -4.4,-5.6 4.4,4.6 2.1,-2.1 -3.8,-4.5 3.6,-3.6 -12.9,-4.2 2.9,13.4 z"
           id="path91"
           style="fill:#fffcf5;stroke:#000000;stroke-width:0;stroke-linejoin:round;stroke-dasharray:none;stroke-opacity:1" /></g></g></g></svg>
