<?xml version="1.0" encoding="UTF-8" standalone="no"?>
<!-- Created with Inkscape (http://www.inkscape.org/) -->

<svg
   width="33.866669mm"
   height="16.737049mm"
   viewBox="0 0 33.866669 16.737049"
   version="1.1"
   id="svg19681"
   inkscape:version="1.2.2 (b0a8486541, 2022-12-01)"
   sodipodi:docname="gpu_son.svg"
   xmlns:inkscape="http://www.inkscape.org/namespaces/inkscape"
   xmlns:sodipodi="http://sodipodi.sourceforge.net/DTD/sodipodi-0.dtd"
   xmlns="http://www.w3.org/2000/svg"
   xmlns:svg="http://www.w3.org/2000/svg">
  <sodipodi:namedview
     id="namedview19683"
     pagecolor="#ffffff"
     bordercolor="#000000"
     borderopacity="0.25"
     inkscape:showpageshadow="2"
     inkscape:pageopacity="0.0"
     inkscape:pagecheckerboard="0"
     inkscape:deskcolor="#d1d1d1"
     inkscape:document-units="px"
     showgrid="false"
     inkscape:zoom="2.3786088"
     inkscape:cx="85.554211"
     inkscape:cy="51.710899"
     inkscape:window-width="1920"
     inkscape:window-height="1128"
     inkscape:window-x="1920"
     inkscape:window-y="0"
     inkscape:window-maximized="1"
     inkscape:current-layer="layer1" />
  <defs
     id="defs19678" />
  <g
     inkscape:label="Layer 1"
     inkscape:groupmode="layer"
     id="layer1"
     transform="translate(-128.53481,-58.754105)">
    <g
       id="g20623"
       transform="matrix(0.97484499,0,0,0.97484499,3.2332948,1.4779603)">
      <g
         id="g20577"
         style="fill:#ffffff">
        <rect
           style="fill:#ffffff;stroke-width:0.125094"
           id="rect20571"
           width="5.8323517"
           height="2.3386309"
           x="58.754105"
           y="-132.5065"
           ry="0.56278616"
           transform="rotate(90)" />
        <rect
           style="fill:#ffffff;stroke-width:0.0855447"
           id="rect20569"
           width="3.3257725"
           height="1.917912"
           x="128.53481"
           y="74.00293"
           ry="0.46154115" />
        <rect
           style="fill:#ffffff;stroke-width:0.444638"
           id="rect20567"
           width="11.00823"
           height="15.654177"
           x="134.92291"
           y="60.26886"
           ry="0.58611041" />
        <rect
           style="fill:#ffffff;stroke-width:0.730476"
           id="rect20565"
           width="33.100277"
           height="14.051224"
           x="130.17509"
           y="61.871815"
           ry="1.270786" />
      </g>
      <g
         id="g19676"
         transform="matrix(0.15351244,0,0,0.15351244,-211.56607,204.05068)">
        <g
           id="g19308"
           transform="translate(1503.5664,-573.57664)">
          <rect
             style="fill:#7b7a80;fill-opacity:1;stroke-width:0.170409"
             id="rect1247"
             width="4.9813266"
             height="105.48769"
             x="727.44489"
             y="-370.13971"
             ry="0.90858996" />
          <rect
             style="fill:#7b7a80;fill-opacity:1;stroke-width:0.224456"
             id="rect1249"
             width="17.999701"
             height="5.3564525"
             x="714.36646"
             y="-270.01672"
             ry="1.3438368" />
        </g>
        <rect
           style="fill:#333236;fill-opacity:1;stroke-width:0.361047"
           id="rect1251"
           width="15.943888"
           height="5.3223901"
           x="2261.293"
           y="-927.05157" />
        <rect
           style="fill:#333236;fill-opacity:1;stroke-width:0.264583"
           id="rect1253"
           width="42.83432"
           height="6.3734088"
           x="2282.4216"
           y="-927.38916" />
        <rect
           style="fill:#9a8f93;fill-opacity:1;stroke-width:0.312593"
           id="rect18181"
           width="201.04619"
           height="84.661812"
           x="2237.4985"
           y="-923.06903"
           ry="8.806694" />
        <rect
           style="fill:#36353b;fill-opacity:1;stroke-width:0.286654"
           id="rect1193"
           width="191.76202"
           height="74.64138"
           x="2242.1201"
           y="-918.05884"
           ry="7.7643485" />
        <rect
           style="fill:#e4d17b;fill-opacity:1;stroke-width:0.361047"
           id="rect1257"
           width="15.943888"
           height="5.3223901"
           x="2261.293"
           y="-932.34326" />
        <rect
           style="fill:#e4d17b;fill-opacity:1;stroke-width:0.264583"
           id="rect1259"
           width="42.83432"
           height="6.3734088"
           x="2282.4216"
           y="-932.68085" />
        <text
           xml:space="preserve"
           style="font-style:normal;font-variant:normal;font-weight:normal;font-stretch:normal;font-size:19.4814px;font-family:'DejaVu Sans';-inkscape-font-specification:'DejaVu Sans';fill:#e6e6e6;fill-opacity:1;stroke-width:1.62346"
           x="2248.7395"
           y="-872.93195"
           id="text1650"><tspan
             sodipodi:role="line"
             id="tspan1648"
             style="font-style:normal;font-variant:normal;font-weight:normal;font-stretch:normal;font-family:'DejaVu Sans';-inkscape-font-specification:'DejaVu Sans';stroke-width:1.62346"
             x="2248.7395"
             y="-872.93195">RTX</tspan></text>
        <rect
           style="fill:#9a8f93;fill-opacity:1;stroke-width:0.327599"
           id="rect19296"
           width="48.088394"
           height="4.9434514"
           x="516.25299"
           y="-2426.1887"
           ry="0.86010009"
           transform="rotate(56.205533)" />
        <rect
           style="fill:#9a8f93;fill-opacity:1;stroke-width:0.327599"
           id="rect19298"
           width="48.088394"
           height="4.9434514"
           x="1979.3762"
           y="-1447.1079"
           ry="0.86010009"
           transform="matrix(0.55621537,-0.83103819,-0.83103819,-0.55621537,0,0)" />
        <rect
           style="fill:#9a8f93;fill-opacity:1;stroke-width:0.220625"
           id="rect19300"
           width="21.810442"
           height="4.9434514"
           x="2325.2466"
           y="-882.97113"
           ry="0.86010009" />
        <rect
           style="fill:#9a8f93;fill-opacity:1;stroke-width:0.327599"
           id="rect19302"
           width="48.088394"
           height="4.9434514"
           x="-2084.033"
           y="1458.4382"
           ry="0.86010009"
           transform="matrix(-0.55621537,0.83103819,0.83103819,0.55621537,0,0)" />
        <rect
           style="fill:#9a8f93;fill-opacity:1;stroke-width:0.327599"
           id="rect19304"
           width="48.088394"
           height="4.9434514"
           x="-620.49805"
           y="2437.7949"
           ry="0.86010009"
           transform="rotate(-123.79447)" />
        <rect
           style="fill:#808080;fill-opacity:1;stroke-width:0.165437"
           id="rect19310"
           width="48.462379"
           height="0.68491942"
           x="2379.2249"
           y="-915.29694"
           ry="0" />
        <rect
           style="fill:#808080;fill-opacity:1;stroke-width:0.177544"
           id="rect19368"
           width="55.815346"
           height="0.68491942"
           x="2375.1038"
           y="-910.00525"
           ry="0" />
        <rect
           style="fill:#808080;fill-opacity:1;stroke-width:0.183025"
           id="rect19370"
           width="59.314915"
           height="0.68491942"
           x="2371.6042"
           y="-904.71362"
           ry="0" />
        <rect
           style="fill:#808080;fill-opacity:1;stroke-width:0.188093"
           id="rect19372"
           width="62.645508"
           height="0.68491942"
           x="2368.2737"
           y="-899.42194"
           ry="0" />
        <rect
           style="fill:#808080;fill-opacity:1;stroke-width:0.19333"
           id="rect19374"
           width="66.182434"
           height="0.68491942"
           x="2364.7366"
           y="-894.13031"
           ry="0" />
        <rect
           style="fill:#808080;fill-opacity:1;stroke-width:0.19782"
           id="rect19376"
           width="69.292183"
           height="0.68491942"
           x="2361.627"
           y="-888.83862"
           ry="0" />
        <rect
           style="fill:#808080;fill-opacity:1;stroke-width:0.203087"
           id="rect19378"
           width="73.031433"
           height="0.68491942"
           x="2357.8877"
           y="-883.547"
           ry="0" />
        <rect
           style="fill:#808080;fill-opacity:1;stroke-width:0.20341"
           id="rect19380"
           width="73.264168"
           height="0.68491942"
           x="2357.6548"
           y="-878.25531"
           ry="0" />
        <rect
           style="fill:#808080;fill-opacity:1;stroke-width:0.196938"
           id="rect19382"
           width="68.675659"
           height="0.68491942"
           x="2362.2434"
           y="-872.96368"
           ry="0" />
        <rect
           style="fill:#808080;fill-opacity:1;stroke-width:0.189977"
           id="rect19384"
           width="63.907303"
           height="0.68491942"
           x="2367.0117"
           y="-867.672"
           ry="0" />
        <rect
           style="fill:#808080;fill-opacity:1;stroke-width:0.184022"
           id="rect19386"
           width="59.963512"
           height="0.68491942"
           x="2370.9556"
           y="-862.38037"
           ry="0" />
        <rect
           style="fill:#808080;fill-opacity:1;stroke-width:0.179842"
           id="rect19388"
           width="57.269825"
           height="0.68491942"
           x="2373.6492"
           y="-857.08868"
           ry="0" />
        <rect
           style="fill:#808080;fill-opacity:1;stroke-width:0.17561"
           id="rect19390"
           width="54.606098"
           height="0.68491942"
           x="2376.313"
           y="-851.79706"
           ry="0" />
        <rect
           style="fill:#808080;fill-opacity:1;stroke-width:0.164536"
           id="rect19392"
           width="47.935928"
           height="0.68491942"
           x="2379.2249"
           y="-846.50537"
           ry="0" />
        <g
           id="g1518"
           style="fill:#ffffff"
           transform="matrix(1.2772185,0,0,1.2772185,1710.7106,-945.88709)">
          <path
             class="st0"
             d="m 529.3738,48.115241 c 0.62981,-1.898736 1.85074,-3.528263 3.44273,-4.672765 -1.66112,-3.850189 -2.50302,-8.336474 -2.31958,-12.677871 0.0244,-0.5727 -0.48098,-1.512401 -1.75891,-0.959933 -2.53157,1.09347 -4.73694,2.75166 -6.73853,4.594194 -1.91177,1.76104 -2.34397,4.567778 -0.89474,6.313532 2.40085,2.89003 5.16476,5.563344 8.26903,7.402843 z"
             id="path1470"
             style="fill:#ffffff;stroke-width:0.112404" />
          <path
             class="st0"
             d="m 542.16577,42.525256 c 2.50504,-3.365164 5.968,-6.3368 9.82032,-8.347602 0.50964,-0.266062 1.07009,-1.173053 -0.0489,-2.005633 -2.21144,-1.644926 -4.75111,-2.726144 -7.34585,-3.537367 -2.48256,-0.776602 -5.12823,0.252798 -5.91506,2.382749 -1.30445,3.52208 -2.23595,7.254132 -2.27664,10.861865 1.95876,-0.404656 3.97867,-0.161076 5.76613,0.645988 z"
             id="path1472"
             style="fill:#ffffff;stroke-width:0.112404" />
          <path
             class="st0"
             d="m 555.85269,41.383902 c -3.70361,0.632837 -7.40093,1.690675 -10.54601,3.458909 1.33098,1.494979 2.12995,3.367187 2.32565,5.318865 4.16616,0.486037 8.47102,2.000574 12.13777,4.330268 0.48514,0.307764 1.55107,0.340473 1.71214,-1.045586 0.32002,-2.737497 -0.0121,-5.476793 -0.60732,-8.130662 -0.57068,-2.537642 -2.78426,-4.314981 -5.02223,-3.931794 z"
             id="path1474"
             style="fill:#ffffff;stroke-width:0.112404" />
          <path
             class="st0"
             d="m 547.19822,54.041427 c -0.6298,1.897499 -1.85062,3.527251 -3.44261,4.671528 1.66123,3.850302 2.50291,8.336475 2.31947,12.677984 -0.0244,0.5727 0.48109,1.512401 1.76104,0.959933 2.52955,-1.093582 4.73695,-2.75166 6.7364,-4.594193 1.91177,-1.761041 2.34397,-4.567779 0.89474,-6.313532 -2.39883,-2.889019 -5.16476,-5.563233 -8.26904,-7.40172 z"
             id="path1476"
             style="fill:#ffffff;stroke-width:0.112404" />
          <path
             class="st0"
             d="m 534.40817,59.6313 c -2.50291,3.364264 -5.96586,6.3359 -9.8183,8.347602 -0.50953,0.26505 -1.06998,1.172041 0.0489,2.004621 2.21155,1.644926 4.75122,2.726144 7.34585,3.53748 2.48257,0.776489 5.12823,-0.252798 5.91506,-2.38275 1.30445,-3.52208 2.23595,-7.25312 2.27664,-10.861864 -1.95865,0.404656 -3.98058,0.161075 -5.76815,-0.645089 z"
             id="path1478"
             style="fill:#ffffff;stroke-width:0.112404" />
          <path
             class="st0"
             d="m 528.93959,51.993981 c -4.16616,-0.486262 -8.47103,-2.000574 -12.13766,-4.330381 -0.48514,-0.307763 -1.55118,-0.340361 -1.71226,1.045698 -0.3199,2.737273 0.0123,5.476794 0.60946,8.13055 0.56865,2.537642 2.78224,4.314981 5.02032,3.931795 3.7035,-0.63295 7.40093,-1.690788 10.54578,-3.45891 -1.33098,-1.494979 -2.12995,-3.367074 -2.32564,-5.318752 z"
             id="path1480"
             style="fill:#ffffff;stroke-width:0.112404" />
          <path
             class="st0"
             d="m 538.285,44.278203 c -3.75453,0 -6.79766,3.045149 -6.79766,6.799569 0,3.755544 3.04313,6.799681 6.79766,6.799681 3.75645,0 6.80159,-3.044137 6.80159,-6.799681 1.2e-4,-3.75442 -3.04503,-6.799569 -6.80159,-6.799569 z"
             id="path1482"
             style="fill:#ffffff;stroke-width:0.112404" />
        </g>
      </g>
    </g>
  </g>
</svg>
